<?xml version="1.0" encoding="UTF-8"?>
<svg id="Livello_2" data-name="Livello 2" xmlns="http://www.w3.org/2000/svg" xmlns:xlink="http://www.w3.org/1999/xlink" viewBox="0 0 252.25 286.09">
  <defs>
    <style>
      .cls-1 {
        fill: url(#Degradado_sin_nombre_21);
      }

      .cls-2 {
        letter-spacing: -.02em;
      }

      .cls-2, .cls-3, .cls-4 {
        font-family: Montserrat-Light, Montserrat;
        font-weight: 300;
      }

      .cls-5 {
        font-family: BebasNeueRegular, BebasNeueRegular;
        font-size: 18.12px;
      }

      .cls-5, .cls-6 {
        fill: #3d3df4;
      }

      .cls-3 {
        letter-spacing: 0em;
      }

      .cls-6 {
        font-size: 51.57px;
      }

      .cls-7 {
        fill: url(#Degradado_sin_nombre_19);
      }

      .cls-8 {
        font-family: Montserrat-Black, Montserrat;
        font-weight: 800;
      }

      .cls-9 {
        fill: url(#Degradado_sin_nombre_25);
      }

      .cls-10 {
        letter-spacing: .4em;
      }

      .cls-11 {
        letter-spacing: .39em;
      }

      .cls-12 {
        fill: url(#Degradado_sin_nombre_24);
      }

      .cls-13 {
        letter-spacing: .4em;
      }
    </style>
    <linearGradient id="Degradado_sin_nombre_24" data-name="Degradado sin nombre 24" x1="53.5" y1="67.78" x2="191.24" y2="67.78" gradientUnits="userSpaceOnUse">
      <stop offset="0" stop-color="#43c5ed"/>
      <stop offset=".42" stop-color="#43d3d9"/>
      <stop offset="1" stop-color="#43edb8"/>
    </linearGradient>
    <linearGradient id="Degradado_sin_nombre_21" data-name="Degradado sin nombre 21" x1="53.5" y1="77.98" x2="171.44" y2="77.98" gradientUnits="userSpaceOnUse">
      <stop offset="0" stop-color="#158cff"/>
      <stop offset=".32" stop-color="#209afa"/>
      <stop offset=".94" stop-color="#3fc0ee"/>
      <stop offset="1" stop-color="#43c5ed"/>
    </linearGradient>
    <linearGradient id="Degradado_sin_nombre_19" data-name="Degradado sin nombre 19" x1="53.5" y1="90.12" x2="151.76" y2="90.12" gradientUnits="userSpaceOnUse">
      <stop offset="0" stop-color="#0040f2"/>
      <stop offset=".26" stop-color="#0657f5"/>
      <stop offset=".75" stop-color="#107dfc"/>
      <stop offset="1" stop-color="#158cff"/>
    </linearGradient>
    <linearGradient id="Degradado_sin_nombre_25" data-name="Degradado sin nombre 25" x1="92.56" y1="190.03" x2="92.56" y2="9.52" gradientUnits="userSpaceOnUse">
      <stop offset="0" stop-color="#0040f2"/>
      <stop offset=".18" stop-color="#313df2"/>
      <stop offset=".37" stop-color="#5d3bf2"/>
      <stop offset=".55" stop-color="#7f39f2"/>
      <stop offset=".72" stop-color="#9838f2"/>
      <stop offset=".87" stop-color="#a637f2"/>
      <stop offset="1" stop-color="#ac37f2"/>
    </linearGradient>
  </defs>
  <g id="OBJECTS">
    <g>
      <g>
        <path class="cls-12" d="M53.5,9.52l4.53,118.93c.16,4.19,3.77,7.41,7.95,7.09l118.43-8.96c3.96-.3,6.98-3.68,6.83-7.65l-4.26-111.81c-.16-4.19-3.77-7.41-7.95-7.09L53.5,9.52"/>
        <polyline class="cls-1" points="53.5 9.52 58.33 136.12 171.44 146.43 166.61 19.83 53.5 9.52"/>
        <polyline class="cls-7" points="53.5 9.52 58.33 136.12 151.76 170.72 146.94 44.13 53.5 9.52"/>
        <path class="cls-9" d="M53.5,9.52l4.76,124.73c.05,1.19,.59,2.31,1.5,3.08l59.97,50.97c4.79,4.07,12.13,.5,11.89-5.78l-4.08-107.01c-.08-2.02-1-3.92-2.54-5.23L53.5,9.52"/>
      </g>
      <g>
        <text class="cls-6" transform="translate(2.76 251.7)"><tspan class="cls-8" x="0" y="0">epi</tspan><tspan class="cls-3" x="86.59" y="0">boo</tspan><tspan class="cls-2" x="185.35" y="0">k</tspan><tspan class="cls-4" x="214.85" y="0">s</tspan></text>
        <text class="cls-5" transform="translate(0 281.56)"><tspan class="cls-13" x="0" y="0">leg</tspan><tspan class="cls-11" x="45.22" y="0">g</tspan><tspan class="cls-10" x="62.49" y="0">i che fa bene</tspan></text>
      </g>
    </g>
  </g>
</svg>